<svg width="82" height="12" viewBox="0 0 82 12" fill="none" xmlns="http://www.w3.org/2000/svg">
<path d="M8.07133 7.35C8.07133 6.86 8.08133 6.34 8.10133 6.02C8.13133 5.67 8.24133 5.56 8.48133 5.51C8.58133 5.5 8.71133 5.48 8.75133 5.48C8.85133 5.47 8.91133 5.45 8.91133 5.38C8.91133 5.3 8.83133 5.28 8.68133 5.28C8.14133 5.28 7.49133 5.31 7.13133 5.31C6.86133 5.31 6.09133 5.28 5.44133 5.28C5.28133 5.28 5.23133 5.32 5.23133 5.38C5.23133 5.44 5.31133 5.48 5.39133 5.48C5.56133 5.5 5.69133 5.51 5.82133 5.53C6.16133 5.58 6.29133 5.79 6.29133 6.36C6.30133 6.73 6.30133 7.12 6.30133 7.53V8.14C6.30133 8.26 6.26133 8.35 6.18133 8.41C6.03133 8.52 5.76133 8.53 5.62133 8.53C3.52133 8.53 2.66133 6.62 2.66133 4.83C2.66133 3.85 2.90133 3.11 3.29133 2.67C3.74133 2.16 4.34133 1.95 5.08133 1.95C6.47133 1.95 7.36133 2.43 7.55133 3.11C7.65133 3.35 7.65133 3.46 7.67133 3.61C7.68133 3.69 7.72133 3.77 7.79133 3.77C7.86133 3.77 7.90133 3.72 7.90133 3.56C7.90133 2.23 7.99133 1.82 8.01133 1.72C8.02133 1.63 8.00133 1.59 7.91133 1.59C7.62133 1.58 7.29133 1.51 6.95133 1.47C6.52133 1.4 5.94133 1.33 5.33133 1.33C4.57133 1.33 3.49133 1.38 2.46133 1.99C1.53133 2.52 0.661328 3.58 0.661328 5.25C0.661328 7.91 2.61133 9.17 5.42133 9.17C6.32133 9.17 7.34133 9 7.87133 8.79C8.05133 8.72 8.07133 8.66 8.07133 8.07V7.35ZM13.7103 6.96C13.7403 6.96 13.7803 6.98 13.7903 7.02L14.4603 8.61C14.4903 8.7 14.4503 8.77 14.3403 8.79C14.2503 8.81 14.2003 8.85 14.2003 8.91C14.2003 8.97 14.2603 9 14.4203 9C15.0603 9.01 16.2003 9.03 17.1803 9.03C17.3703 9.03 17.4403 9 17.4403 8.93C17.4403 8.87 17.3803 8.83 17.2503 8.83C17.1603 8.82 17.0403 8.82 16.9303 8.79C16.5803 8.74 16.3603 8.5 16.0203 7.72C15.3403 6.2 13.6603 2.37 13.4003 1.81C13.2303 1.45 13.1403 1.31 13.0403 1.31C12.9303 1.31 12.8203 1.46 12.6303 1.89L9.96031 7.93C9.75031 8.41 9.55031 8.72 9.20031 8.79C9.10031 8.81 9.00031 8.82 8.88031 8.83C8.76031 8.83 8.69031 8.85 8.69031 8.93C8.69031 8.99 8.75031 9.03 8.89031 9.03C9.39031 9.03 10.0503 9 10.1603 9C10.6903 9 11.0303 9.03 11.4803 9.03C11.6103 9.03 11.6903 9.01 11.6903 8.93C11.6903 8.88 11.6603 8.83 11.5103 8.83C11.4303 8.82 11.2703 8.81 11.1603 8.79C10.9503 8.77 10.8603 8.68 10.8603 8.49C10.8603 8.37 10.9203 8.11 11.0203 7.85L11.3303 7.03C11.3503 6.98 11.3703 6.96 11.4203 6.96H13.7103ZM11.7103 6.16C11.6803 6.16 11.6603 6.14 11.6703 6.11L12.5203 3.97C12.5403 3.92 12.5603 3.9 12.5903 3.97L13.4703 6.11C13.4803 6.13 13.4803 6.16 13.4203 6.16H11.7103ZM18.3217 6.13C18.3217 7.11 18.3017 7.83 18.2617 8.25C18.2317 8.54 18.1617 8.76 17.9517 8.79C17.8417 8.81 17.7417 8.82 17.6417 8.83C17.5217 8.83 17.4417 8.86 17.4417 8.93C17.4417 9.01 17.5217 9.03 17.6817 9.03C18.0217 9.03 19.0717 9 19.1217 9C19.2117 9 20.2817 9.03 20.9617 9.03C21.1217 9.03 21.1717 8.98 21.1717 8.93C21.1717 8.87 21.1317 8.83 20.9617 8.83C20.8317 8.82 20.6517 8.81 20.5217 8.78C20.2217 8.71 20.1617 8.53 20.1417 8.27C20.1017 7.85 20.0917 6.92 20.0917 6.13V4.37C20.0917 2.82 20.0917 2.56 20.1217 2.24C20.1417 1.88 20.2417 1.75 20.5017 1.7C20.6317 1.68 20.6917 1.68 20.7917 1.67C20.8917 1.67 20.9817 1.65 20.9817 1.57C20.9817 1.51 20.9317 1.47 20.7617 1.47C20.4017 1.47 19.2217 1.5 19.1317 1.5C19.0517 1.5 18.0717 1.47 17.6717 1.47C17.5017 1.47 17.4517 1.5 17.4517 1.56C17.4517 1.63 17.5217 1.67 17.6417 1.67C17.7717 1.68 17.8717 1.69 17.9417 1.71C18.1617 1.75 18.2717 1.93 18.2917 2.21C18.3217 2.53 18.3217 2.82 18.3217 4.37V6.13ZM26.0443 6.96C26.0743 6.96 26.1143 6.98 26.1243 7.02L26.7943 8.61C26.8243 8.7 26.7843 8.77 26.6743 8.79C26.5843 8.81 26.5343 8.85 26.5343 8.91C26.5343 8.97 26.5943 9 26.7543 9C27.3943 9.01 28.5343 9.03 29.5143 9.03C29.7043 9.03 29.7743 9 29.7743 8.93C29.7743 8.87 29.7143 8.83 29.5843 8.83C29.4943 8.82 29.3743 8.82 29.2643 8.79C28.9143 8.74 28.6943 8.5 28.3543 7.72C27.6743 6.2 25.9943 2.37 25.7343 1.81C25.5643 1.45 25.4743 1.31 25.3743 1.31C25.2643 1.31 25.1543 1.46 24.9643 1.89L22.2943 7.93C22.0843 8.41 21.8843 8.72 21.5343 8.79C21.4343 8.81 21.3343 8.82 21.2143 8.83C21.0943 8.83 21.0243 8.85 21.0243 8.93C21.0243 8.99 21.0843 9.03 21.2243 9.03C21.7243 9.03 22.3843 9 22.4943 9C23.0243 9 23.3643 9.03 23.8143 9.03C23.9443 9.03 24.0243 9.01 24.0243 8.93C24.0243 8.88 23.9943 8.83 23.8443 8.83C23.7643 8.82 23.6043 8.81 23.4943 8.79C23.2843 8.77 23.1943 8.68 23.1943 8.49C23.1943 8.37 23.2543 8.11 23.3543 7.85L23.6643 7.03C23.6843 6.98 23.7043 6.96 23.7543 6.96H26.0443ZM24.0443 6.16C24.0143 6.16 23.9943 6.14 24.0043 6.11L24.8543 3.97C24.8743 3.92 24.8943 3.9 24.9243 3.97L25.8043 6.11C25.8143 6.13 25.8143 6.16 25.7543 6.16H24.0443ZM35.2284 4.47C35.2284 2.82 35.2384 2.62 35.2584 2.3C35.2784 1.95 35.3484 1.76 35.6184 1.71C35.7584 1.68 35.8584 1.68 35.9584 1.67C36.0984 1.67 36.1984 1.65 36.1984 1.56C36.1984 1.5 36.1384 1.47 35.9584 1.47C35.5984 1.47 34.3584 1.5 34.2684 1.5C33.8784 1.5 33.3584 1.47 32.7884 1.47C32.5884 1.47 32.4884 1.49 32.4884 1.57C32.4884 1.65 32.5884 1.67 32.6984 1.67C32.8484 1.68 32.9984 1.69 33.0884 1.72C33.3384 1.79 33.4084 1.96 33.4284 2.24C33.4484 2.56 33.4584 2.74 33.4584 4.37V6.13C33.4584 6.75 33.4484 7.35 33.4284 7.75C33.3984 8.55 33.3884 8.73 33.0284 8.79C32.9184 8.81 32.8084 8.82 32.6884 8.83C32.5484 8.83 32.4884 8.86 32.4884 8.92C32.4884 9.01 32.5684 9.03 32.7084 9.03C33.2584 9.03 33.7984 9 34.2684 9C35.3284 9 36.2584 9.06 37.6384 9.06C38.0384 9.06 38.1184 9.05 38.1984 8.79C38.2984 8.5 38.4084 7.55 38.4084 7.32C38.4084 7.18 38.3984 7.13 38.3284 7.13C38.2484 7.13 38.2284 7.21 38.1984 7.32C38.0884 7.79 37.9184 8.05 37.6784 8.16C37.3984 8.31 37.0784 8.32 36.5284 8.32C35.6984 8.32 35.5084 8.27 35.3684 8.08C35.1984 7.87 35.2284 7.15 35.2284 6.14V4.47ZM43.2991 9.17C45.9191 9.17 47.4991 7.39 47.4991 5.06C47.4991 3.03 45.9091 1.33 43.3691 1.33C40.4291 1.33 39.0891 3.28 39.0891 5.28C39.0891 7.05 40.3491 9.17 43.2991 9.17ZM43.5991 8.53C41.8791 8.53 41.0891 6.72 41.0891 4.83C41.0891 2.46 42.1191 1.95 43.0391 1.95C44.8091 1.95 45.4991 3.84 45.4991 5.5C45.4991 8.26 44.2191 8.53 43.5991 8.53ZM51.1001 4.37C51.1001 3.09 51.1101 2.62 51.1301 2.3C51.1501 1.98 51.2001 1.77 51.4801 1.71C51.5801 1.69 51.7201 1.68 51.8101 1.67C51.9401 1.66 51.9901 1.64 51.9901 1.56C51.9901 1.5 51.9401 1.47 51.7701 1.47C51.4101 1.47 50.2201 1.5 50.1401 1.5C50.0501 1.5 49.0401 1.47 48.6101 1.47C48.4201 1.47 48.3401 1.5 48.3401 1.56C48.3401 1.62 48.4001 1.66 48.5501 1.67C48.6401 1.68 48.8701 1.7 48.9801 1.74C49.2101 1.81 49.2701 1.94 49.2901 2.22C49.3201 2.54 49.3201 2.82 49.3201 4.37V5.89C49.3201 7.33 49.7201 8.06 50.2501 8.5C50.8701 9.04 51.7501 9.17 52.6301 9.17C53.3101 9.17 54.0901 9.03 54.7101 8.51C55.6801 7.72 55.7301 6.49 55.7301 5.35V4.37C55.7301 2.9 55.7401 2.64 55.7601 2.32C55.7901 1.91 55.8701 1.76 56.1401 1.71C56.2801 1.68 56.3401 1.68 56.4501 1.67C56.5801 1.66 56.6201 1.62 56.6201 1.57C56.6201 1.5 56.5601 1.47 56.4101 1.47C55.9201 1.47 55.2701 1.5 55.0901 1.5C54.9301 1.5 54.3201 1.47 53.7501 1.47C53.5701 1.47 53.5201 1.51 53.5201 1.57C53.5201 1.63 53.5701 1.67 53.7001 1.67C53.9001 1.69 53.9601 1.69 54.0701 1.71C54.4001 1.77 54.4801 1.94 54.5001 2.32C54.5201 2.64 54.5201 2.9 54.5201 4.37V5.57C54.5201 6.6 54.5201 7.65 53.9601 8.13C53.6101 8.43 53.1801 8.5 52.8601 8.5C52.6101 8.5 52.2701 8.49 51.8601 8.22C51.3101 7.83 51.1001 7.25 51.1001 5.87V4.37ZM58.1201 7.56C58.0901 8.49 58.0401 8.74 57.6501 8.8C57.5401 8.82 57.4101 8.82 57.3201 8.83C57.1801 8.83 57.1301 8.87 57.1301 8.93C57.1301 9.01 57.2101 9.03 57.3501 9.03C57.7401 9.03 58.4801 9 58.7101 9C59.3301 9.01 59.6501 9.03 60.0001 9.03C60.1601 9.03 60.2401 9.01 60.2401 8.93C60.2401 8.87 60.1901 8.84 60.0401 8.83C59.8401 8.81 59.6601 8.81 59.5101 8.76C59.2301 8.66 59.1901 8.39 59.1701 7.67L59.0701 4.26C59.8001 4.97 60.8001 5.91 61.3601 6.42C61.9601 6.97 62.8401 7.76 63.5201 8.36C64.1701 8.93 64.4801 9.17 64.6401 9.17C64.7701 9.17 64.8401 9.06 64.8401 8.55C64.8801 6.54 64.8801 4.54 64.9601 2.53C64.9901 1.91 65.0901 1.74 65.4201 1.7C65.4901 1.68 65.5401 1.68 65.6701 1.67C65.7901 1.67 65.8401 1.61 65.8401 1.56C65.8401 1.5 65.7701 1.47 65.6201 1.47C65.2001 1.47 64.7001 1.5 64.4801 1.5C64.0801 1.5 63.4301 1.47 63.0301 1.47C62.9201 1.47 62.8301 1.5 62.8301 1.57C62.8301 1.62 62.8801 1.67 63.0101 1.67C63.1501 1.68 63.3101 1.69 63.4501 1.72C63.8501 1.79 63.9001 2.05 63.9201 2.61L63.9801 6.36C63.7101 6.12 63.0201 5.45 62.0001 4.51C59.7101 2.41 59.1901 1.91 58.7701 1.56C58.5101 1.35 58.4601 1.32 58.3801 1.32C58.2601 1.32 58.2201 1.5 58.2101 1.8C58.1501 3.09 58.1701 5.5 58.1201 7.56ZM74.1846 7.35C74.1846 6.86 74.1946 6.34 74.2146 6.02C74.2446 5.67 74.3546 5.56 74.5946 5.51C74.6946 5.5 74.8246 5.48 74.8646 5.48C74.9646 5.47 75.0246 5.45 75.0246 5.38C75.0246 5.3 74.9446 5.28 74.7946 5.28C74.2546 5.28 73.6046 5.31 73.2446 5.31C72.9746 5.31 72.2046 5.28 71.5546 5.28C71.3946 5.28 71.3446 5.32 71.3446 5.38C71.3446 5.44 71.4246 5.48 71.5046 5.48C71.6746 5.5 71.8046 5.51 71.9346 5.53C72.2746 5.58 72.4046 5.79 72.4046 6.36C72.4146 6.73 72.4146 7.12 72.4146 7.53V8.14C72.4146 8.26 72.3746 8.35 72.2946 8.41C72.1446 8.52 71.8746 8.53 71.7346 8.53C69.6346 8.53 68.7746 6.62 68.7746 4.83C68.7746 3.85 69.0146 3.11 69.4046 2.67C69.8546 2.16 70.4546 1.95 71.1946 1.95C72.5846 1.95 73.4746 2.43 73.6646 3.11C73.7646 3.35 73.7646 3.46 73.7846 3.61C73.7946 3.69 73.8346 3.77 73.9046 3.77C73.9746 3.77 74.0146 3.72 74.0146 3.56C74.0146 2.23 74.1046 1.82 74.1246 1.72C74.1346 1.63 74.1146 1.59 74.0246 1.59C73.7346 1.58 73.4046 1.51 73.0646 1.47C72.6346 1.4 72.0546 1.33 71.4446 1.33C70.6846 1.33 69.6046 1.38 68.5746 1.99C67.6446 2.52 66.7746 3.58 66.7746 5.25C66.7746 7.91 68.7246 9.17 71.5346 9.17C72.4346 9.17 73.4546 9 73.9846 8.79C74.1646 8.72 74.1846 8.66 74.1846 8.07V7.35ZM76.6127 6.13C76.6127 6.75 76.6027 7.34 76.5827 7.74C76.5627 8.37 76.5227 8.75 76.2427 8.79C76.1627 8.81 76.0627 8.82 75.9427 8.83C75.7927 8.83 75.7427 8.88 75.7427 8.93C75.7427 9 75.8027 9.03 75.9827 9.03C76.5327 9.03 76.9527 9 77.4227 9C78.4727 9 79.2227 9.06 80.6027 9.06C80.9727 9.06 81.0427 9.05 81.1127 8.79C81.1627 8.6 81.2727 7.84 81.2727 7.45C81.2727 7.33 81.2627 7.23 81.1827 7.23C81.1227 7.23 81.0827 7.29 81.0627 7.41C80.9727 7.87 80.8527 8.09 80.5727 8.2C80.2927 8.31 79.9027 8.32 79.6427 8.32C78.5327 8.32 78.3927 8.16 78.3827 7.46C78.3727 7.08 78.3827 6.49 78.3827 6.15V5.46C78.3827 5.38 78.3927 5.33 78.4427 5.33C78.7527 5.33 79.5727 5.35 79.8527 5.37C80.3427 5.4 80.4827 5.57 80.5227 5.86C80.5327 5.94 80.5427 6.01 80.5527 6.09C80.5727 6.18 80.5927 6.25 80.6627 6.25C80.7227 6.25 80.7527 6.19 80.7527 6.06C80.7527 5.95 80.7527 5.46 80.7627 5.23C80.7927 4.84 80.8427 4.48 80.8427 4.38C80.8427 4.32 80.8427 4.26 80.7827 4.26C80.7327 4.26 80.7027 4.3 80.6427 4.39C80.5327 4.57 80.4027 4.6 79.9127 4.62C79.5527 4.63 78.7427 4.64 78.4627 4.63C78.3927 4.63 78.3827 4.58 78.3827 4.51V2.31C78.3827 2.24 78.4027 2.21 78.4627 2.21C78.7627 2.21 79.6327 2.23 79.9627 2.26C80.4427 2.3 80.5727 2.43 80.6227 2.66C80.6627 2.8 80.6727 2.9 80.6727 3.01C80.6827 3.1 80.7227 3.15 80.7727 3.15C80.8327 3.15 80.8727 3.09 80.8727 3.01C80.9027 2.49 80.9227 2.14 80.9527 1.94C80.9827 1.65 81.0027 1.55 81.0027 1.5C81.0027 1.45 80.9927 1.41 80.9427 1.41C80.9027 1.41 80.8527 1.43 80.7827 1.45C80.6827 1.47 80.4427 1.49 80.2427 1.49C80.0827 1.49 77.6327 1.5 77.4227 1.5C76.9827 1.5 76.5027 1.47 75.9327 1.47C75.7727 1.47 75.7127 1.5 75.7127 1.56C75.7127 1.62 75.7627 1.66 75.8927 1.67C75.9927 1.68 76.1327 1.68 76.2227 1.7C76.4727 1.76 76.5627 1.93 76.5827 2.22C76.6027 2.54 76.6127 2.74 76.6127 4.37V6.13Z" fill="#B19C76"/>
</svg>
